<?xml version="1.0" encoding="UTF-8" standalone="no"?>
<!-- Created with Inkscape (http://www.inkscape.org/) -->

<svg
   version="1.1"
   id="svg1"
   width="566.89502"
   height="124.71533"
   viewBox="0 0 566.89502 124.71533"
   sodipodi:docname="Screenshot from 2023-08-05 19-29-43.png"
   xmlns:inkscape="http://www.inkscape.org/namespaces/inkscape"
   xmlns:sodipodi="http://sodipodi.sourceforge.net/DTD/sodipodi-0.dtd"
   xmlns="http://www.w3.org/2000/svg"
   xmlns:svg="http://www.w3.org/2000/svg">
  <defs
     id="defs1">
    <filter
       inkscape:collect="always"
       style="color-interpolation-filters:sRGB"
       id="filter32"
       x="-0.14113522"
       y="-0.14180353"
       width="1.2822704"
       height="1.2836071">
      <feGaussianBlur
         inkscape:collect="always"
         stdDeviation="4.0523597"
         id="feGaussianBlur32" />
    </filter>
    <filter
       inkscape:collect="always"
       style="color-interpolation-filters:sRGB"
       id="filter33"
       x="-0.14440569"
       y="-0.14095077"
       width="1.2888114"
       height="1.2819015">
      <feGaussianBlur
         inkscape:collect="always"
         stdDeviation="4.0523597"
         id="feGaussianBlur33" />
    </filter>
    <filter
       inkscape:collect="always"
       style="color-interpolation-filters:sRGB"
       id="filter34"
       x="-0.12276964"
       y="-0.14034906"
       width="1.2455112"
       height="1.280456">
      <feGaussianBlur
         inkscape:collect="always"
         stdDeviation="4.0523597"
         id="feGaussianBlur34" />
    </filter>
    <filter
       inkscape:collect="always"
       style="color-interpolation-filters:sRGB"
       id="filter35"
       x="-0.14388211"
       y="-0.14199282"
       width="1.2877642"
       height="1.2839856">
      <feGaussianBlur
         inkscape:collect="always"
         stdDeviation="4.0523597"
         id="feGaussianBlur35" />
    </filter>
    <filter
       inkscape:collect="always"
       style="color-interpolation-filters:sRGB"
       id="filter36"
       x="-0.12276965"
       y="-0.14034906"
       width="1.2455112"
       height="1.280456">
      <feGaussianBlur
         inkscape:collect="always"
         stdDeviation="4.0523597"
         id="feGaussianBlur36" />
    </filter>
  </defs>
  <sodipodi:namedview
     id="namedview1"
     pagecolor="#ffffff"
     bordercolor="#000000"
     borderopacity="0.25"
     inkscape:showpageshadow="2"
     inkscape:pageopacity="0.0"
     inkscape:pagecheckerboard="0"
     inkscape:deskcolor="#d1d1d1" />
  <g
     inkscape:groupmode="layer"
     id="layer1"
     inkscape:label="neon"
     transform="translate(-28.902012,-70.109283)">
    <path
       style="fill:none;fill-opacity:1;stroke:#72e4d2;stroke-width:3;stroke-dasharray:none;stroke-opacity:1"
       d="m 384.12295,181.18669 h 36.79399 v -33.01396 h 1.41971 v 2.66111 h 6.96729 v 7.3657 h 14.02081 v -7.63959 h 5.8092 v -1.7617 h 1.88095 v 31.82956 h 36.69812 V 90.427752 h -35.5333 v 2.79382 h -1.3855 v 4.81449 h -5.35467 v 1.07508 h -1.56059 v 6.836928 h -6.92667 v 6.82026 h -2.39686 v -6.67587 h -6.65599 v -6.835168 h -1.18879 v -1.54305 h -5.88753 v -4.8867 h -1.17067 v -2.46906 l -35.61792,0.26014 z"
       id="path19"
       sodipodi:nodetypes="ccccccccccccccccccccccccccccccccccccc" />
    <path
       style="fill:none;fill-opacity:1;stroke:#72e4d2;stroke-width:3;stroke-dasharray:none;stroke-opacity:1"
       d="m 377.62669,112.06314 -0.0488,-21.00778 h -80.80845 v 6.687601 h -7.08858 v 3.413659 h -1.52618 v 72.17302 h 8.44031 v 7.46723 h 81.72615 v -30.53362 l -51.76546,-0.21909 -0.11838,-8.14853 21.31384,0.32001 0.36531,-21.54332 -22.01189,-0.0868 -0.64576,-8.57376 z"
       id="path17"
       sodipodi:nodetypes="ccccccccccccccccccc" />
    <path
       style="fill:none;fill-opacity:1;stroke:#72e4d2;stroke-width:3;stroke-dasharray:none;stroke-opacity:1"
       d="M 152.70859,181.48079 V 91.814509 h 79.16239 v 2.86098 h 2.06895 v 4.24413 h 6.61733 v 29.516311 h -6.78268 v 7.70782 h 7.0584 v 45.95521 H 203.90231 V 152.04865 H 188.4045 v 29.85213 z"
       id="path16" />
    <path
       style="fill:none;fill-opacity:1;stroke:#72e4d2;stroke-width:3;stroke-dasharray:none;stroke-opacity:1"
       d="M 41.719005,181.18669 H 78.513 v -33.01396 h 1.419707 v 2.66111 h 6.967291 v 7.3657 h 14.020812 v -7.63959 h 5.8092 v -1.7617 h 1.88095 v 31.82956 h 36.69812 V 90.427752 h -35.5333 v 2.79382 h -1.3855 v 4.81449 h -5.35467 v 1.07508 h -1.56059 v 6.836928 h -6.92667 v 6.82026 h -2.396869 v -6.67587 h -6.65599 v -6.835168 h -1.188789 v -1.54305 h -5.887531 v -4.8867 h -1.170666 v -2.46906 l -35.617921,0.26014 z"
       id="path15"
       sodipodi:nodetypes="ccccccccccccccccccccccccccccccccccccc" />
    <path
       style="fill:none;fill-opacity:1;stroke:#72e4d2;stroke-width:3;stroke-dasharray:none;stroke-opacity:1"
       d="M 494.62624,180.62985 V 98.473929 h 7.13741 v -6.821725 h 73.09225 v 7.689275 h 8.21541 v 81.932601 h -36.32719 v -38.26982 h -15.53347 v 37.99623 z"
       id="path18" />
  </g>
  <g
     inkscape:groupmode="layer"
     id="layer2"
     inkscape:label="blur"
     transform="translate(-28.902012,-70.109283)">
    <path
       style="fill:none;fill-opacity:1;stroke:#72e4d2;stroke-width:6;stroke-dasharray:none;stroke-opacity:1;filter:url(#filter36)"
       d="m 384.12295,181.18669 h 36.79399 v -33.01396 h 1.41971 v 2.66111 h 6.96729 v 7.3657 h 14.02081 v -7.63959 h 5.8092 v -1.7617 h 1.88095 v 31.82956 h 36.69812 V 90.427752 h -35.5333 v 2.79382 h -1.3855 v 4.81449 h -5.35467 v 1.07508 h -1.56059 v 6.836928 h -6.92667 v 6.82026 h -2.39686 v -6.67587 h -6.65599 v -6.835168 h -1.18879 v -1.54305 h -5.88753 v -4.8867 h -1.17067 v -2.46906 l -35.61792,0.26014 z"
       id="path20"
       sodipodi:nodetypes="ccccccccccccccccccccccccccccccccccccc"
       inkscape:label="path20" />
    <path
       style="fill:none;fill-opacity:1;stroke:#72e4d2;stroke-width:6;stroke-dasharray:none;stroke-opacity:1;filter:url(#filter32)"
       d="m 377.62669,112.06314 -0.0488,-21.00778 h -80.80845 v 6.687601 h -7.08858 v 3.413659 h -1.52618 v 72.17302 h 8.44031 v 7.46723 h 81.72615 v -30.53362 l -51.76546,-0.21909 -0.11838,-8.14853 21.31384,0.32001 0.36531,-21.54332 -22.01189,-0.0868 -0.64576,-8.57376 z"
       id="path21"
       sodipodi:nodetypes="ccccccccccccccccccc" />
    <path
       style="fill:none;fill-opacity:1;stroke:#72e4d2;stroke-width:6;stroke-dasharray:none;stroke-opacity:1;filter:url(#filter33)"
       d="M 152.70859,181.48079 V 91.814509 h 79.16239 v 2.86098 h 2.06895 v 4.24413 h 6.61733 v 29.516311 h -6.78268 v 7.70782 h 7.0584 v 45.95521 H 203.90231 V 152.04865 H 188.4045 v 29.85213 z"
       id="path22" />
    <path
       style="fill:none;fill-opacity:1;stroke:#72e4d2;stroke-width:6;stroke-dasharray:none;stroke-opacity:1;filter:url(#filter34)"
       d="M 41.719005,181.18669 H 78.513 v -33.01396 h 1.419707 v 2.66111 h 6.967291 v 7.3657 h 14.020812 v -7.63959 h 5.8092 v -1.7617 h 1.88095 v 31.82956 h 36.69812 V 90.427752 h -35.5333 v 2.79382 h -1.3855 v 4.81449 h -5.35467 v 1.07508 h -1.56059 v 6.836928 h -6.92667 v 6.82026 h -2.396869 v -6.67587 h -6.65599 v -6.835168 h -1.188789 v -1.54305 h -5.887531 v -4.8867 h -1.170666 v -2.46906 l -35.617921,0.26014 z"
       id="path23"
       sodipodi:nodetypes="ccccccccccccccccccccccccccccccccccccc" />
    <path
       style="fill:none;fill-opacity:1;stroke:#72e4d2;stroke-width:6;stroke-dasharray:none;stroke-opacity:1;filter:url(#filter35)"
       d="M 494.62624,180.62985 V 98.473929 h 7.13741 v -6.821725 h 73.09225 v 7.689275 h 8.21541 v 81.932601 h -36.32719 v -38.26982 h -15.53347 v 37.99623 z"
       id="path24"
       inkscape:label="path24" />
  </g>
  <g
     inkscape:groupmode="layer"
     inkscape:label="text"
     id="g1"
     transform="translate(-28.902012,-70.109283)">
    <path
       style="fill:#b6177a;fill-opacity:1;stroke:#b6177a;stroke-width:1;stroke-dasharray:none;stroke-opacity:1"
       d="M 42.239859,161.44116 H 79.033854 V 128.4272 h 1.419707 v 2.66111 h 6.967291 v 7.3657 h 14.020808 v -7.63959 h 5.8092 v -1.7617 h 1.88095 v 31.82956 h 36.69812 V 70.682225 h -35.5333 v 2.793815 h -1.3855 v 4.814492 h -5.35467 v 1.075084 h -1.56059 v 6.836925 h -6.926666 v 6.820263 h -2.396869 v -6.675867 h -6.65599 v -6.83517 h -1.188789 v -1.543058 h -5.887531 v -4.886691 h -1.170666 v -2.469069 l -35.617921,0.260148 z"
       id="path1"
       sodipodi:nodetypes="ccccccccccccccccccccccccccccccccccccc" />
    <path
       id="path2"
       style="fill:#ffffff;fill-opacity:1;stroke:#ca1885;stroke-width:1;stroke-dasharray:none;stroke-opacity:1"
       d="m 44.169922,74.015625 v 76.613285 h 31.683594 v -38.11524 h 6.851562 v 7.43555 h 7.052734 v 6.92969 h 3.179688 1.955078 3.181641 v -6.92969 H 105.125 v -7.43555 h 6.85156 v 38.11524 h 31.68555 V 74.015625 h -30.98828 v 6.703125 h -7.86524 v 8.289062 h -7.154293 v 7.816407 H 93.992188 93.839844 90.175781 V 89.007812 H 83.021484 V 80.71875 h -7.863281 v -6.703125 z" />
    <path
       style="fill:#b6177a;fill-opacity:1;stroke:#b6177a;stroke-width:1;stroke-dasharray:none;stroke-opacity:1"
       d="M 153.22944,161.17053 V 71.504254 h 79.16239 v 2.86098 h 2.06895 v 4.24413 h 6.61733 v 29.516306 h -6.78268 v 7.70782 h 7.0584 v 45.95521 h -36.93067 v -30.05031 h -15.49781 v 29.85213 z"
       id="path3" />
    <path
       style="fill:#ffffff;fill-opacity:1;stroke:#ca1885;stroke-width:1;stroke-dasharray:none;stroke-opacity:1"
       d="m 155.36099,75.007404 h 75.01033 v 7.31922 h 7.4075 v 22.436456 h -7.40048 v 14.70626 h 8.52759 v 30.79276 h -30.76879 v -30.51566 h -22.16228 v 30.52092 h -31.02835 z"
       id="path4" />
    <path
       style="fill:#ca1885;fill-opacity:1;stroke:#ca1885;stroke-width:1;stroke-dasharray:none;stroke-opacity:1"
       d="M 185.60014,89.830582 V 103.1373 H 207.7899 V 89.388038 Z"
       id="path5" />
    <path
       style="fill:#b6177a;fill-opacity:1;stroke:#ca1885;stroke-width:0.620427;stroke-dasharray:none;stroke-opacity:1"
       d="m 189.81145,92.270117 v 8.255843 h 13.76713 v -8.530409 z"
       id="path6" />
    <path
       style="fill:#ca1885;fill-opacity:1;stroke:#ca1885;stroke-width:1;stroke-dasharray:none;stroke-opacity:1"
       d="m 378.14754,92.521052 -0.0488,-21.00778 h -80.80845 v 6.687601 h -7.08858 v 3.413662 h -1.52618 v 72.173015 h 8.44031 v 7.46723 h 81.72615 v -30.53362 l -51.76546,-0.21909 -0.11838,-8.14853 21.31384,0.32001 0.36531,-21.54332 -22.01189,-0.0868 -0.64576,-8.573759 z"
       id="path7"
       sodipodi:nodetypes="ccccccccccccccccccc" />
    <path
       style="fill:#ffffff;fill-opacity:1;stroke:#ca1885;stroke-width:1;stroke-dasharray:none;stroke-opacity:1"
       d="m 299.98635,74.367221 v 7.831828 h -6.99929 v 60.408331 h 7.26633 v 7.05385 h 74.89386 v -16.08034 h -52.82122 v -14.66328 h 23.78815 V 103.83103 H 322.58232 V 89.348805 h 52.03829 V 73.646293 Z"
       id="path8" />
    <path
       style="fill:#ca1885;fill-opacity:1;stroke:#ca1885;stroke-width:1;stroke-dasharray:none;stroke-opacity:1"
       d="M 495.14709,159.73967 V 77.583748 h 7.13741 v -6.821725 h 73.09225 v 7.689275 h 8.21541 V 160.3839 H 547.26497 V 122.11408 H 531.7315 v 37.99623 z"
       id="path9" />
    <path
       style="fill:#ffffff;fill-opacity:1;stroke:#981466;stroke-width:1;stroke-dasharray:none;stroke-opacity:1"
       d="M 497.82164,150.02007 V 81.606981 h 7.44959 v -7.692197 h 68.55398 v 7.757088 h 6.80302 V 150.11244 H 550.98772 V 119.59912 H 527.8439 v 29.58731 z"
       id="path10" />
    <path
       style="fill:#ca1885;fill-opacity:1;stroke:#ca1885;stroke-width:1;stroke-dasharray:none;stroke-opacity:1"
       d="m 527.78077,89.989594 v 13.306716 h 22.18976 V 89.547054 Z"
       id="path11" />
    <path
       style="fill:#b6177a;fill-opacity:1;stroke:#ca1885;stroke-width:0.620427;stroke-dasharray:none;stroke-opacity:1"
       d="m 531.99208,92.429134 v 8.255836 h 13.76713 v -8.530406 z"
       id="path12" />
    <path
       style="fill:#b6177a;fill-opacity:1;stroke:#b6177a;stroke-width:1;stroke-dasharray:none;stroke-opacity:1"
       d="m 385.51414,161.44116 h 36.794 V 128.4272 h 1.41971 v 2.66111 h 6.96729 v 7.3657 h 14.02081 v -7.63959 h 5.8092 v -1.7617 h 1.88095 v 31.82956 h 36.69812 V 70.682225 h -35.5333 v 2.793815 h -1.3855 v 4.814492 h -5.35467 v 1.075084 h -1.56059 v 6.836925 h -6.92667 v 6.820263 h -2.39687 v -6.675867 h -6.65599 v -6.83517 h -1.18879 v -1.543058 h -5.88753 v -4.886691 h -1.17067 v -2.469069 l -35.61792,0.260148 z"
       id="path13"
       sodipodi:nodetypes="ccccccccccccccccccccccccccccccccccccc" />
    <path
       id="path14"
       style="fill:#ffffff;fill-opacity:1;stroke:#ca1885;stroke-width:1;stroke-dasharray:none;stroke-opacity:1"
       d="m 387.44421,74.015625 v 76.613285 h 31.68359 v -38.11524 h 6.85156 v 7.43555 h 7.05274 v 6.92969 h 3.17969 1.95507 3.18164 v -6.92969 h 7.05079 v -7.43555 h 6.85156 v 38.11524 H 486.9364 V 74.015625 h -30.98828 v 6.703125 h -7.86524 v 8.289062 h -7.1543 v 7.816407 h -3.66211 -0.15234 -3.66406 v -7.816407 h -7.1543 V 80.71875 h -7.86328 v -6.703125 z" />
  </g>
</svg>
